<?xml version="1.0" encoding="utf-8"?>
<!-- Generator: Adobe Illustrator 26.2.1, SVG Export Plug-In . SVG Version: 6.00 Build 0)  -->
<svg version="1.1" id="Layer_3" xmlns="http://www.w3.org/2000/svg" xmlns:xlink="http://www.w3.org/1999/xlink" x="0px" y="0px"
	 viewBox="0 0 130 32" style="enable-background:new 0 0 130 32;" xml:space="preserve">
<style type="text/css">
	.st0{fill:#FFFFFF;}
</style>
<g>
	<path class="st0" d="M37.7,17.3c-3.3,0-6,2.7-6,6c0,3.3,2.7,6,6,6c3.3,0,6-2.7,6-6C43.7,20,41.1,17.3,37.7,17.3z M37.7,26.9
		c-1.9,0-3.5-1.6-3.5-3.5c0-1.9,1.6-3.5,3.5-3.5s3.5,1.6,3.5,3.5C41.2,25.3,39.7,26.9,37.7,26.9z"/>
	<path class="st0" d="M23.9,0.3c-3.3,0-6,2.7-6,6c0,3.3,2.7,6,6,6c3.3,0,6-2.7,6-6C29.9,3,27.2,0.3,23.9,0.3z M23.9,9.8
		c-1.9,0-3.5-1.6-3.5-3.5c0-1.9,1.6-3.5,3.5-3.5s3.5,1.6,3.5,3.5C27.4,8.3,25.8,9.8,23.9,9.8z"/>
	<path class="st0" d="M86,0.3c-3.3,0-6,2.7-6,6c0,3.3,2.7,6,6,6c3.3,0,6-2.7,6-6C92,3,89.3,0.3,86,0.3z M86,9.8
		c-1.9,0-3.5-1.6-3.5-3.5c0-1.9,1.6-3.5,3.5-3.5c1.9,0,3.5,1.6,3.5,3.5C89.5,8.3,87.9,9.8,86,9.8z"/>
	<rect x="18.3" y="29" class="st0" width="2.8" height="2.8"/>
	<rect x="18.3" y="23.4" class="st0" width="8.5" height="2.8"/>
	<rect x="18.3" y="17.7" class="st0" width="11.3" height="2.8"/>
	<polygon class="st0" points="46.8,17.7 46.8,29 56.8,29 56.8,26.5 49.3,26.5 49.3,24.6 56.7,24.6 56.7,22.1 49.3,22.1 49.3,20.2 
		56.8,20.2 56.8,17.7 	"/>
	<path class="st0" d="M68.9,24.7c0.6-0.3,1.1-0.8,1.5-1.3c0.3-0.6,0.5-1.2,0.5-1.9c0-1-0.4-1.9-1.1-2.6c-0.7-0.7-1.7-1.1-3-1.1h-6.2
		V29h2.5v-3.9h3.3l2,3.9h2.8L68.9,24.7z M68,22.3c-0.3,0.2-0.6,0.3-1.1,0.3h-3.8v-2.4h3.8c0.5,0,0.8,0.1,1.1,0.3
		c0.3,0.2,0.4,0.5,0.4,0.9C68.4,21.8,68.2,22.1,68,22.3z"/>
	<polygon class="st0" points="86.1,17.7 86.1,20.2 90,20.2 90,29 92.5,29 92.5,20.2 96.4,20.2 96.4,17.7 	"/>
	<polygon class="st0" points="99,17.7 99,29 109,29 109,26.5 101.5,26.5 101.5,24.6 108.9,24.6 108.9,22.1 101.5,22.1 101.5,20.2 
		108.9,20.2 108.9,17.7 	"/>
	<path class="st0" d="M121.1,24.7c0.6-0.3,1.1-0.8,1.5-1.3c0.3-0.6,0.5-1.2,0.5-1.9c0-1-0.4-1.9-1.1-2.6c-0.7-0.7-1.7-1.1-3-1.1
		h-6.2V29h2.5v-3.9h3.3l2,3.9h2.8L121.1,24.7z M120.2,22.3c-0.3,0.2-0.6,0.3-1.1,0.3h-3.8v-2.4h3.8c0.5,0,0.8,0.1,1.1,0.3
		c0.3,0.2,0.4,0.5,0.4,0.9C120.6,21.8,120.4,22.1,120.2,22.3z"/>
	<path class="st0" d="M75.3,18.4C74.4,19.1,74,19.9,74,21c0,1.1,0.4,1.9,1.1,2.5c0.7,0.6,1.8,0.9,3,1l2,0.2c0.6,0,1,0.1,1.3,0.3
		c0.3,0.1,0.5,0.4,0.5,0.7c0,0.7-0.9,1.1-2.6,1.1c-0.4,0-0.9-0.1-1.3-0.2c-0.4-0.1-0.8-0.2-1-0.4c-0.3-0.1-0.5-0.3-0.8-0.5
		c-0.2-0.2-0.4-0.3-0.5-0.4c-0.1-0.1-0.1-0.1-0.2-0.2L73.6,27l0.2,0.2c0.1,0.2,0.3,0.4,0.7,0.6c0.3,0.2,0.7,0.5,1.1,0.7
		c0.4,0.2,0.9,0.4,1.6,0.6c0.7,0.2,1.4,0.2,2.1,0.2c1.6,0,2.8-0.3,3.8-1c0.9-0.7,1.4-1.6,1.4-2.7c0-1.1-0.4-1.9-1.2-2.5
		c-0.8-0.6-1.9-0.9-3.2-1l-2-0.2c-1.1-0.1-1.6-0.4-1.6-1c0-0.7,0.7-1.1,2.2-1.1c0.4,0,0.8,0,1.2,0.1c0.4,0.1,0.7,0.2,0.9,0.3
		c0.2,0.1,0.4,0.3,0.6,0.4c0.2,0.2,0.3,0.3,0.4,0.3c0.1,0.1,0.1,0.1,0.1,0.1l2-1.5l-0.2-0.2c-0.1-0.2-0.3-0.4-0.6-0.6
		c-0.3-0.2-0.6-0.5-1-0.7c-0.4-0.2-0.9-0.4-1.5-0.6c-0.6-0.2-1.2-0.2-1.9-0.2C77.4,17.3,76.2,17.7,75.3,18.4"/>
	<g>
		<rect x="0.6" y="0.7" class="st0" width="2.8" height="11.3"/>
		<rect x="6.3" y="0.7" class="st0" width="2.8" height="8.5"/>
		<rect x="12" y="0.7" class="st0" width="2.8" height="11.3"/>
	</g>
	<rect x="60.7" y="0.7" class="st0" width="2.8" height="11.3"/>
	<path class="st0" d="M41.2,7.6c0.6-0.3,1.1-0.8,1.5-1.3c0.3-0.6,0.5-1.2,0.5-1.9c0-1-0.4-1.9-1.1-2.6c-0.7-0.7-1.7-1.1-3-1.1h-6.2
		V12h2.5V8.1h3.3l2,3.9h2.8L41.2,7.6z M40.3,5.3c-0.3,0.2-0.6,0.3-1.1,0.3h-3.8V3.2h3.8c0.5,0,0.8,0.1,1.1,0.3
		c0.3,0.2,0.4,0.5,0.4,0.9C40.7,4.8,40.6,5.1,40.3,5.3z"/>
	<path class="st0" d="M55.1,7.6c0.6-0.3,1.1-0.8,1.5-1.3c0.3-0.6,0.5-1.2,0.5-1.9c0-1-0.4-1.9-1.1-2.6c-0.7-0.7-1.7-1.1-3-1.1h-6.2
		V12h2.5V8.1h3.3l2,3.9h2.8L55.1,7.6z M54.2,5.3c-0.3,0.2-0.6,0.3-1.1,0.3h-3.8V3.2h3.8c0.5,0,0.8,0.1,1.1,0.3
		c0.3,0.2,0.4,0.5,0.4,0.9C54.6,4.8,54.4,5.1,54.2,5.3z"/>
	<polygon class="st0" points="103.7,0.7 103.7,9.8 99,0.7 94.9,0.7 94.9,12 97.4,12 97.4,3 102.1,12 106.2,12 106.2,0.7 	"/>
	<path class="st0" d="M68.4,1.3C67.5,2,67.1,2.9,67.1,4c0,1.1,0.4,1.9,1.1,2.5c0.7,0.6,1.8,0.9,3,1l2,0.2c0.6,0,1,0.1,1.3,0.3
		C74.8,8.1,75,8.4,75,8.7c0,0.7-0.9,1.1-2.6,1.1c-0.4,0-0.9-0.1-1.3-0.2c-0.4-0.1-0.8-0.2-1-0.4c-0.3-0.1-0.5-0.3-0.8-0.5
		c-0.2-0.2-0.4-0.3-0.5-0.4c-0.1-0.1-0.1-0.1-0.2-0.2l-1.9,1.6l0.2,0.2c0.1,0.2,0.3,0.4,0.7,0.6c0.3,0.2,0.7,0.5,1.1,0.7
		c0.4,0.2,0.9,0.4,1.6,0.6c0.7,0.2,1.4,0.2,2.1,0.2c1.6,0,2.8-0.3,3.8-1c0.9-0.7,1.4-1.6,1.4-2.7c0-1.1-0.4-1.9-1.2-2.5
		c-0.8-0.6-1.9-0.9-3.2-1l-2-0.2c-1.1-0.1-1.6-0.4-1.6-1c0-0.7,0.7-1.1,2.2-1.1c0.4,0,0.8,0,1.2,0.1c0.4,0.1,0.7,0.2,0.9,0.3
		c0.2,0.1,0.4,0.3,0.6,0.4C74.8,3.9,75,4,75,4c0.1,0.1,0.1,0.1,0.1,0.1l2-1.5l-0.2-0.2c-0.1-0.2-0.3-0.4-0.6-0.6
		c-0.3-0.2-0.6-0.5-1-0.7c-0.4-0.2-0.9-0.4-1.5-0.6c-0.6-0.2-1.2-0.2-1.9-0.2C70.5,0.3,69.3,0.7,68.4,1.3"/>
</g>
</svg>
