<?xml version="1.0" encoding="utf-8"?>
<!-- Generator: Adobe Illustrator 23.0.3, SVG Export Plug-In . SVG Version: 6.00 Build 0)  -->
<svg version="1.1" id="Layer_1" xmlns="http://www.w3.org/2000/svg" xmlns:xlink="http://www.w3.org/1999/xlink" x="0px" y="0px"
	 viewBox="0 0 256 59" style="enable-background:new 0 0 256 59;" xml:space="preserve">
<style type="text/css">
	.st0{fill:#FFFFFF;}
</style>
<title>voice-pattern</title>
<rect y="9" class="st0" width="2" height="50"/>
<rect x="42.3" y="21" class="st0" width="2" height="38"/>
<rect x="16.9" y="23" class="st0" width="2" height="36"/>
<rect x="135.5" y="23" class="st0" width="2" height="36"/>
<rect x="220.1" y="16" class="st0" width="2" height="43"/>
<rect x="59.3" y="23" class="st0" width="2" height="36"/>
<rect x="50.8" y="4" class="st0" width="2" height="55"/>
<rect x="33.9" y="29" class="st0" width="2" height="30"/>
<rect x="84.7" y="29" class="st0" width="2" height="30"/>
<rect x="8.5" y="35" class="st0" width="2" height="24"/>
<rect x="152.4" y="24" class="st0" width="2" height="35"/>
<rect x="211.7" y="29" class="st0" width="2" height="30"/>
<rect x="254" y="29" class="st0" width="2" height="30"/>
<rect x="237.1" y="32" class="st0" width="2" height="27"/>
<rect x="76.2" y="35" class="st0" width="2" height="24"/>
<rect x="118.5" y="16" class="st0" width="2" height="43"/>
<rect x="194.7" y="24" class="st0" width="2" height="35"/>
<rect x="110.1" y="24" class="st0" width="2" height="35"/>
<rect x="127" y="29" class="st0" width="2" height="30"/>
<rect x="160.9" y="29" class="st0" width="2" height="30"/>
<rect x="177.8" y="29" class="st0" width="2" height="30"/>
<rect x="25.4" y="18" class="st0" width="2" height="41"/>
<rect x="67.7" y="18" class="st0" width="2" height="41"/>
<rect x="101.6" y="18" class="st0" width="2" height="41"/>
<rect x="93.1" y="12" class="st0" width="2" height="47"/>
<rect x="203.2" y="20" class="st0" width="2" height="39"/>
<rect x="143.9" y="12" class="st0" width="2" height="47"/>
<rect x="169.3" class="st0" width="2" height="59"/>
<rect x="228.6" y="24" class="st0" width="2" height="35"/>
<rect x="186.3" y="9" class="st0" width="2" height="50"/>
<rect x="245.5" y="9" class="st0" width="2" height="50"/>
</svg>
